<svg xmlns="http://www.w3.org/2000/svg" xmlns:xlink="http://www.w3.org/1999/xlink" width="1000" zoomAndPan="magnify" viewBox="0 0 750 749.999995" height="1000" preserveAspectRatio="xMidYMid meet" version="1.0"><defs><g/><clipPath id="a97d2b3ac3"><path d="M 22.226562 282.066406 L 705.316406 282.066406 L 705.316406 725.742188 L 22.226562 725.742188 Z M 22.226562 282.066406 " clip-rule="nonzero"/></clipPath><clipPath id="8ad35efdc5"><path d="M 0.519531 0.28125 L 727.71875 0.28125 L 727.71875 296 L 0.519531 296 Z M 0.519531 0.28125 " clip-rule="nonzero"/></clipPath><clipPath id="7f9c546a74"><rect x="0" width="728" y="0" height="296"/></clipPath><clipPath id="55820e7d64"><rect x="0" width="396" y="0" height="108"/></clipPath><clipPath id="5943e657af"><rect x="0" width="728" y="0" height="727"/></clipPath></defs><g transform="matrix(1, 0, 0, 1, 11, 11)"><g clip-path="url(#5943e657af)"><g clip-path="url(#a97d2b3ac3)"><path fill="#000000" d="M 364.023438 51.535156 C 180.472656 51.535156 31.148438 200.863281 31.148438 384.410156 C 31.148438 567.957031 180.472656 717.28125 364.023438 717.28125 C 547.570312 717.28125 696.894531 567.957031 696.894531 384.410156 C 696.894531 200.863281 547.570312 51.535156 364.023438 51.535156 Z M 364.023438 726.167969 C 175.574219 726.167969 22.261719 572.855469 22.261719 384.410156 C 22.261719 195.964844 175.574219 42.652344 364.023438 42.652344 C 552.464844 42.652344 705.777344 195.964844 705.777344 384.410156 C 705.777344 572.855469 552.464844 726.167969 364.023438 726.167969 " fill-opacity="1" fill-rule="nonzero"/></g><g clip-path="url(#8ad35efdc5)"><g transform="matrix(1, 0, 0, 1, -0.000000000000001776, -0.000000000000044409)"><g clip-path="url(#7f9c546a74)"><g fill="#000000" fill-opacity="1"><g transform="translate(74.306271, 286.522852)"><g><path d="M -39.671875 -53.828125 C -37.503906 -58.546875 -34.835938 -62.273438 -31.671875 -65.015625 C -28.503906 -67.753906 -25.039062 -69.394531 -21.28125 -69.9375 C -17.53125 -70.488281 -13.679688 -69.851562 -9.734375 -68.03125 C -5.835938 -66.238281 -2.863281 -63.734375 -0.8125 -60.515625 C 1.238281 -57.296875 2.238281 -53.597656 2.1875 -49.421875 C 2.132812 -45.242188 1.023438 -40.796875 -1.140625 -36.078125 L -6.078125 -25.375 L 8.578125 -18.625 L 2.90625 -6.296875 L -50.28125 -30.796875 Z M -11.5 -40.015625 C -9.789062 -43.710938 -9.289062 -46.890625 -10 -49.546875 C -10.707031 -52.210938 -12.535156 -54.222656 -15.484375 -55.578125 C -18.472656 -56.953125 -21.207031 -57.039062 -23.6875 -55.84375 C -26.164062 -54.65625 -28.257812 -52.210938 -29.96875 -48.515625 L -34.578125 -38.5 L -16.109375 -30 Z M -11.5 -40.015625 "/></g></g></g><g fill="#000000" fill-opacity="1"><g transform="translate(101.64983, 227.737101)"><g><path d="M 17.484375 -43.859375 L 1.0625 -22.1875 L 7.9375 -10.46875 L -0.453125 0.59375 L -31.390625 -55.5625 L -23.296875 -66.234375 L 39.1875 -51.75 L 30.609375 -40.421875 Z M 6.703125 -46.6875 L -16.78125 -52.796875 L -4.515625 -31.875 Z M 6.703125 -46.6875 "/></g></g></g><g fill="#000000" fill-opacity="1"><g transform="translate(142.711624, 174.113057)"><g><path d="M 16.046875 -53.09375 L 25.5 -61.078125 L 40.828125 -42.921875 C 39.953125 -39.035156 38.328125 -35.253906 35.953125 -31.578125 C 33.585938 -27.898438 30.785156 -24.691406 27.546875 -21.953125 C 22.898438 -18.035156 17.890625 -15.503906 12.515625 -14.359375 C 7.140625 -13.210938 1.914062 -13.503906 -3.15625 -15.234375 C -8.238281 -16.960938 -12.648438 -20.046875 -16.390625 -24.484375 C -20.140625 -28.910156 -22.441406 -33.769531 -23.296875 -39.0625 C -24.148438 -44.363281 -23.539062 -49.585938 -21.46875 -54.734375 C -19.40625 -59.878906 -16.03125 -64.429688 -11.34375 -68.390625 C -7.414062 -71.703125 -3.296875 -74.046875 1.015625 -75.421875 C 5.328125 -76.804688 9.628906 -77.15625 13.921875 -76.46875 L 12.453125 -64.734375 C 6.410156 -65.390625 1.132812 -63.8125 -3.375 -60 C -6.226562 -57.59375 -8.257812 -54.851562 -9.46875 -51.78125 C -10.675781 -48.71875 -10.976562 -45.578125 -10.375 -42.359375 C -9.78125 -39.140625 -8.296875 -36.128906 -5.921875 -33.328125 C -3.585938 -30.554688 -0.882812 -28.601562 2.1875 -27.46875 C 5.257812 -26.34375 8.40625 -26.101562 11.625 -26.75 C 14.84375 -27.394531 17.859375 -28.898438 20.671875 -31.265625 C 23.648438 -33.785156 25.796875 -36.691406 27.109375 -39.984375 Z M 16.046875 -53.09375 "/></g></g></g><g fill="#000000" fill-opacity="1"><g transform="translate(195.362526, 130.730115)"><g><path d="M 40.9375 -34.265625 L 46.078125 -24.6875 L 6.109375 -3.28125 L -21.546875 -54.90625 L 17.46875 -75.8125 L 22.609375 -66.21875 L -4.53125 -51.671875 L 1.46875 -40.46875 L 25.4375 -53.3125 L 30.421875 -44.015625 L 6.453125 -31.171875 L 12.84375 -19.21875 Z M 40.9375 -34.265625 "/></g></g></g><g fill="#000000" fill-opacity="1"><g transform="translate(248.785597, 102.712436)"><g><path d="M 25.328125 -6.765625 C 20.890625 -5.398438 16.421875 -4.675781 11.921875 -4.59375 C 7.429688 -4.519531 3.632812 -5.054688 0.53125 -6.203125 L 1.921875 -17.328125 C 4.867188 -16.296875 8.15625 -15.757812 11.78125 -15.71875 C 15.414062 -15.675781 18.882812 -16.160156 22.1875 -17.171875 C 25.875 -18.304688 28.425781 -19.6875 29.84375 -21.3125 C 31.257812 -22.945312 31.691406 -24.671875 31.140625 -26.484375 C 30.722656 -27.816406 29.859375 -28.765625 28.546875 -29.328125 C 27.242188 -29.890625 25.695312 -30.1875 23.90625 -30.21875 C 22.113281 -30.257812 19.734375 -30.171875 16.765625 -29.953125 C 12.191406 -29.640625 8.390625 -29.570312 5.359375 -29.75 C 2.335938 -29.925781 -0.488281 -30.832031 -3.125 -32.46875 C -5.769531 -34.101562 -7.664062 -36.789062 -8.8125 -40.53125 C -9.8125 -43.769531 -9.84375 -46.976562 -8.90625 -50.15625 C -7.96875 -53.34375 -5.960938 -56.253906 -2.890625 -58.890625 C 0.179688 -61.535156 4.273438 -63.648438 9.390625 -65.234375 C 12.960938 -66.328125 16.582031 -66.972656 20.25 -67.171875 C 23.914062 -67.367188 27.28125 -67.0625 30.34375 -66.25 L 29.375 -55.203125 C 23.300781 -56.535156 17.679688 -56.40625 12.515625 -54.8125 C 8.890625 -53.695312 6.390625 -52.28125 5.015625 -50.5625 C 3.648438 -48.851562 3.265625 -47.046875 3.859375 -45.140625 C 4.453125 -43.210938 5.890625 -42.085938 8.171875 -41.765625 C 10.453125 -41.453125 13.789062 -41.484375 18.1875 -41.859375 C 22.757812 -42.148438 26.554688 -42.207031 29.578125 -42.03125 C 32.609375 -41.851562 35.429688 -40.972656 38.046875 -39.390625 C 40.671875 -37.804688 42.554688 -35.148438 43.703125 -31.421875 C 44.691406 -28.222656 44.703125 -25.03125 43.734375 -21.84375 C 42.765625 -18.65625 40.734375 -15.738281 37.640625 -13.09375 C 34.546875 -10.445312 30.441406 -8.335938 25.328125 -6.765625 Z M 25.328125 -6.765625 "/></g></g></g><g fill="#000000" fill-opacity="1"><g transform="translate(305.428751, 86.77956)"><g/></g></g><g fill="#000000" fill-opacity="1"><g transform="translate(333.921576, 81.28236)"><g><path d="M 51.953125 1.03125 L 44.921875 -5.484375 C 39.347656 -1.148438 32.820312 1.015625 25.34375 1.015625 C 21.101562 1.015625 17.28125 0.332031 13.875 -1.03125 C 10.476562 -2.40625 7.816406 -4.316406 5.890625 -6.765625 C 3.972656 -9.222656 3.019531 -11.988281 3.03125 -15.0625 C 3.03125 -18.6875 4.046875 -21.878906 6.078125 -24.640625 C 8.117188 -27.398438 11.394531 -30.03125 15.90625 -32.53125 C 13.789062 -34.71875 12.257812 -36.800781 11.3125 -38.78125 C 10.375 -40.757812 9.90625 -42.804688 9.90625 -44.921875 C 9.90625 -47.765625 10.65625 -50.269531 12.15625 -52.4375 C 13.664062 -54.613281 15.800781 -56.300781 18.5625 -57.5 C 21.320312 -58.695312 24.515625 -59.296875 28.140625 -59.296875 C 33.210938 -59.296875 37.28125 -58.078125 40.34375 -55.640625 C 43.414062 -53.210938 44.953125 -49.9375 44.953125 -45.8125 C 44.953125 -42.800781 44.039062 -40.125 42.21875 -37.78125 C 40.40625 -35.4375 37.492188 -33.179688 33.484375 -31.015625 L 44.1875 -21.046875 C 45.46875 -23.722656 46.441406 -26.765625 47.109375 -30.171875 L 57.578125 -26.90625 C 56.453125 -21.71875 54.664062 -17.285156 52.21875 -13.609375 L 59.0625 -7.25 Z M 28.140625 -50.421875 C 26.191406 -50.421875 24.644531 -49.921875 23.5 -48.921875 C 22.351562 -47.921875 21.78125 -46.640625 21.78125 -45.078125 C 21.78125 -43.898438 22.085938 -42.796875 22.703125 -41.765625 C 23.316406 -40.734375 24.507812 -39.351562 26.28125 -37.625 C 29.132812 -39.132812 31.117188 -40.488281 32.234375 -41.6875 C 33.347656 -42.882812 33.90625 -44.179688 33.90625 -45.578125 C 33.90625 -47.023438 33.40625 -48.191406 32.40625 -49.078125 C 31.40625 -49.972656 29.984375 -50.421875 28.140625 -50.421875 Z M 26.265625 -9.1875 C 30.335938 -9.1875 33.992188 -10.328125 37.234375 -12.609375 L 23.109375 -25.828125 C 20.484375 -24.328125 18.613281 -22.847656 17.5 -21.390625 C 16.382812 -19.941406 15.828125 -18.300781 15.828125 -16.46875 C 15.828125 -14.289062 16.769531 -12.53125 18.65625 -11.1875 C 20.550781 -9.851562 23.085938 -9.1875 26.265625 -9.1875 Z M 26.265625 -9.1875 "/></g></g></g><g fill="#000000" fill-opacity="1"><g transform="translate(399.924395, 83.170566)"><g/></g></g><g fill="#000000" fill-opacity="1"><g transform="translate(428.723155, 86.638192)"><g><path d="M 48.71875 -45.8125 C 53.65625 -44.21875 57.675781 -42.007812 60.78125 -39.1875 C 63.882812 -36.375 65.925781 -33.132812 66.90625 -29.46875 C 67.882812 -25.8125 67.707031 -21.921875 66.375 -17.796875 C 65.0625 -13.710938 62.929688 -10.457031 59.984375 -8.03125 C 57.046875 -5.601562 53.492188 -4.164062 49.328125 -3.71875 C 45.171875 -3.269531 40.625 -3.84375 35.6875 -5.4375 L 24.46875 -9.0625 L 19.515625 6.296875 L 6.609375 2.125 L 24.59375 -53.609375 Z M 38.34375 -16.1875 C 42.226562 -14.9375 45.445312 -14.820312 48 -15.84375 C 50.5625 -16.863281 52.335938 -18.914062 53.328125 -22 C 54.335938 -25.125 54.101562 -27.847656 52.625 -30.171875 C 51.15625 -32.492188 48.476562 -34.28125 44.59375 -35.53125 L 34.109375 -38.921875 L 27.859375 -19.578125 Z M 38.34375 -16.1875 "/></g></g></g><g fill="#000000" fill-opacity="1"><g transform="translate(490.476174, 107.254684)"><g><path d="M 50.828125 16.375 L 45.453125 25.828125 L 6.03125 3.421875 L 34.953125 -47.5 L 73.4375 -25.625 L 68.078125 -16.171875 L 41.3125 -31.390625 L 35.03125 -20.328125 L 58.65625 -6.890625 L 53.4375 2.28125 L 29.8125 -11.15625 L 23.125 0.625 Z M 50.828125 16.375 "/></g></g></g><g fill="#000000" fill-opacity="1"><g transform="translate(542.613452, 136.858642)"><g><path d="M 42.375 20.8125 L 22.046875 2.765625 L 9.828125 8.71875 L -0.5625 -0.5 L 57.828125 -27 L 67.84375 -18.109375 L 48.578125 43.078125 L 37.9375 33.640625 Z M 46.015625 10.28125 L 53.9375 -12.65625 L 32.125 -2.046875 Z M 46.015625 10.28125 "/></g></g></g><g fill="#000000" fill-opacity="1"><g transform="translate(592.865685, 182.142628)"><g><path d="M 19.75 28.875 C 16.238281 24.050781 14.113281 18.925781 13.375 13.5 C 12.644531 8.070312 13.328125 2.890625 15.421875 -2.046875 C 17.515625 -6.992188 20.910156 -11.171875 25.609375 -14.578125 C 30.296875 -17.992188 35.3125 -19.9375 40.65625 -20.40625 C 46 -20.875 51.132812 -19.921875 56.0625 -17.546875 C 61 -15.171875 65.238281 -11.550781 68.78125 -6.6875 C 71.769531 -2.570312 73.75 1.664062 74.71875 6.03125 C 75.6875 10.394531 75.632812 14.6875 74.5625 18.90625 L 62.9375 16.59375 C 64.3125 10.695312 63.273438 5.382812 59.828125 0.65625 C 57.703125 -2.28125 55.160156 -4.429688 52.203125 -5.796875 C 49.253906 -7.160156 46.160156 -7.648438 42.921875 -7.265625 C 39.679688 -6.878906 36.597656 -5.617188 33.671875 -3.484375 C 30.734375 -1.347656 28.582031 1.195312 27.21875 4.15625 C 25.863281 7.113281 25.378906 10.207031 25.765625 13.4375 C 26.148438 16.664062 27.40625 19.75 29.53125 22.6875 C 32.976562 27.414062 37.734375 30.023438 43.796875 30.515625 L 42.421875 42.265625 C 38.035156 42.015625 33.90625 40.742188 30.03125 38.453125 C 26.164062 36.171875 22.738281 32.976562 19.75 28.875 Z M 19.75 28.875 "/></g></g></g><g fill="#000000" fill-opacity="1"><g transform="translate(630.667306, 235.243901)"><g><path d="M 31.421875 43.1875 L 21.515625 47.65625 L 2.859375 6.328125 L 56.234375 -17.765625 L 74.4375 22.578125 L 64.53125 27.046875 L 51.859375 -1.03125 L 40.265625 4.203125 L 51.453125 28.984375 L 41.84375 33.328125 L 30.65625 8.546875 L 18.296875 14.125 Z M 31.421875 43.1875 "/></g></g></g></g></g></g><path fill="#000000" d="M 126.9375 351.558594 C 127.628906 350.9375 131.125 357.632812 131.492188 357.847656 C 129.09375 358.859375 122.109375 356.941406 119.761719 360.183594 C 120.691406 366.257812 133.371094 365.601562 137.769531 366.402344 C 137.769531 366.402344 155.769531 389.898438 155.769531 389.898438 C 146.382812 388.171875 133.230469 383.960938 123.785156 391.503906 C 123.15625 392.066406 123.226562 393.148438 123.953125 393.605469 C 135.1875 398.285156 148.066406 397.375 159.867188 395.21875 C 160.449219 394.464844 165.863281 401.550781 166.289062 401.667969 C 166.515625 401.902344 166.433594 402.328125 166.128906 402.453125 C 162.972656 403.867188 152.835938 409.097656 151.4375 412.136719 C 151.222656 412.585938 151.703125 413.144531 152.183594 412.957031 C 159.863281 410.585938 170.175781 408.238281 177.242188 410.566406 C 176.78125 411.582031 170.207031 417.464844 175.035156 416.339844 C 175.035156 416.339844 191.675781 413.042969 191.675781 413.042969 C 193.683594 412.460938 189.933594 417.8125 190.027344 418.292969 C 190.488281 422.414062 204.546875 414.742188 206.980469 414.746094 C 211.46875 418.007812 216.476562 419.191406 222.007812 418.300781 C 222.347656 418.207031 222.519531 418.773438 222.179688 418.878906 C 221.40625 419.101562 218.859375 420.097656 220.335938 421.089844 C 230.628906 426.335938 240.074219 424.6875 249.425781 418.621094 C 261.636719 419.121094 276.332031 420.902344 287.777344 426.140625 C 289.5625 428.414062 289.78125 431.585938 291.183594 435.316406 C 291.277344 435.949219 292.324219 436.246094 292.277344 435.496094 C 291.429688 428.523438 290.425781 422.59375 289.261719 417.710938 C 281.210938 383.109375 268.25 350.125 256.140625 316.636719 C 261.402344 318.183594 267.070312 320.246094 273.148438 318.054688 C 286.378906 314.417969 300.96875 303.148438 292.445312 287.667969 C 296.542969 283.382812 303.269531 277.996094 301.460938 271.628906 C 301.332031 270.738281 297.726562 268.382812 298.140625 267.230469 C 301.300781 258.71875 299.574219 249.519531 288.988281 248.921875 C 260.0625 246.71875 277.238281 261.46875 269.09375 225.511719 C 267.617188 219.882812 261.070312 221.566406 256.644531 222.261719 C 246.558594 217.101562 237.15625 222.117188 234.285156 233.375 C 201.511719 223.914062 192.425781 262.339844 216.828125 279.453125 C 213.714844 281.125 211.503906 283.609375 210.203125 286.902344 C 205.65625 284.558594 201.792969 276.933594 198.195312 272.363281 C 199.847656 251.621094 186.589844 241.527344 168.722656 236.25 C 162.339844 254.441406 174.253906 273.550781 194.382812 274.214844 C 199.199219 279.578125 203.898438 286.078125 208.839844 291.375 C 208.226562 295.703125 211.003906 301.066406 210.824219 304.472656 C 201.226562 303.492188 195.445312 319.101562 203.332031 324.507812 C 203.664062 324.734375 203.636719 324.886719 203.246094 324.972656 C 199.371094 325.308594 196.9375 328.773438 194.226562 330.273438 C 194.226562 330.273438 189.316406 326.121094 189.316406 326.121094 C 189.558594 319.828125 190.574219 312.558594 185.875 307.164062 C 184.125 304.960938 182.210938 306.253906 181.421875 308.320312 C 179.5 310.761719 181.097656 318.324219 179.589844 318.609375 C 179.589844 318.609375 164.945312 309.460938 164.945312 309.460938 C 167.738281 291.304688 148.800781 279.710938 156.925781 305.378906 C 156.925781 305.378906 145.542969 301.921875 145.542969 301.921875 C 133.863281 285 118.199219 316.996094 145.683594 306.21875 C 145.820312 306.621094 156.320312 308.871094 154.691406 309.65625 C 151.660156 311.324219 142.988281 316.667969 146.894531 321.328125 C 153.285156 322.464844 159.277344 318.347656 162.8125 313.167969 C 163 312.882812 163.382812 312.796875 163.675781 312.980469 C 163.675781 312.980469 177.449219 321.335938 177.449219 321.335938 C 177.867188 321.585938 177.839844 321.765625 177.371094 321.878906 C 173.128906 322.90625 168.621094 323.6875 165.871094 327.457031 C 164.675781 329.101562 164.929688 330.300781 166.636719 331.054688 C 172.886719 334.191406 180.808594 330.488281 186.476562 328.679688 C 186.691406 329.039062 193.234375 333.464844 192.550781 334.042969 C 189.34375 341.902344 201.335938 343.957031 205.082031 345.640625 C 201.089844 351.550781 205.71875 359.125 203.382812 366.570312 C 202.988281 366.363281 198.628906 356.5625 197.84375 357.601562 C 196.035156 359.246094 190.941406 348.980469 187.890625 347.941406 C 186.523438 347.582031 187.421875 350.726562 186.230469 350.152344 C 186.230469 350.152344 178.027344 344.601562 178.027344 344.601562 C 177.222656 344.097656 176.921875 345.238281 176.773438 345.804688 C 176.3125 347.355469 153.019531 333 152.316406 333.199219 C 152.125 333.074219 151.886719 333.335938 152.023438 333.527344 C 154.726562 338.351562 160.253906 342.273438 163.097656 346.097656 C 162.367188 346.695312 159.132812 347.542969 160.445312 349.027344 C 174.855469 365.488281 185.714844 359.414062 175.121094 366.367188 C 170.480469 370.5625 188.714844 367.621094 187.285156 370.554688 C 186.925781 376.007812 201.191406 373.117188 204.957031 373.039062 C 222.167969 382.636719 234.746094 393.8125 250.964844 404.285156 C 245.351562 403.292969 235.550781 399.070312 226.648438 399.292969 C 222.769531 398.8125 217.460938 400.476562 213.53125 399.417969 C 207.789062 389.273438 200.394531 379.921875 188.011719 379.519531 C 186.316406 385 201.265625 392.378906 204.480469 396.507812 C 201.289062 395.273438 171.992188 388.050781 187.191406 396.421875 C 168.390625 398.851562 174.3125 404.632812 163.769531 393.394531 C 164.441406 389.007812 164.859375 368.210938 158.933594 366.984375 C 154.785156 369.351562 155.785156 378.335938 154.949219 381.171875 C 154.988281 380.355469 140.285156 364.34375 141.375 363.496094 C 154.992188 351.34375 143.808594 338.777344 137.160156 358.949219 C 136.546875 360.648438 131.601562 350.269531 131.234375 350.355469 C 131.089844 350.113281 131.148438 349.796875 131.378906 349.625 C 145.617188 338.753906 133.835938 325.078125 128.273438 345.292969 C 128.144531 345.839844 127.945312 345.867188 127.679688 345.375 C 127.519531 344.863281 124.050781 339.433594 124.617188 338.871094 C 128.585938 328.589844 115.636719 322.71875 113.957031 332.394531 C 112.308594 341.269531 123.265625 339.734375 122.699219 345.398438 C 97.292969 341.089844 110.125 355.632812 126.929688 351.554688 Z M 190.273438 256.742188 C 190.171875 257.03125 189.855469 257.175781 189.570312 257.070312 C 181.453125 254.488281 183.609375 263.132812 182.714844 266.523438 C 172.964844 260.609375 171.292969 251.273438 171.15625 240.507812 C 177.875 243.414062 185.707031 250.386719 190.273438 256.738281 Z M 266.730469 361.625 C 272.972656 382.589844 280.445312 402.078125 286.972656 422.433594 C 279.140625 420.277344 270.792969 409.191406 265.988281 402.042969 C 263.125 395.097656 261.292969 386.59375 256.246094 381.148438 C 255.769531 381.210938 252.890625 374.746094 252.617188 374.375 C 252.207031 373.273438 251.351562 374.699219 250.792969 374.136719 C 250.792969 374.136719 236.234375 354.8125 236.234375 354.8125 C 239.40625 350.660156 238.144531 346.578125 239.542969 341.5 C 241.296875 337.976562 237.785156 337.488281 238.28125 336.324219 C 241.632812 335.816406 244.90625 325.5 245.136719 324.46875 C 246.347656 318.84375 239.394531 317.582031 235.632812 316.378906 C 232.039062 313.742188 245.574219 315.996094 249.398438 311.671875 C 256.910156 327.335938 261.535156 346.042969 266.730469 361.628906 Z M 235.519531 331.714844 L 224.609375 330.191406 C 223.0625 328.507812 238.117188 331.402344 236.835938 329.285156 C 236.835938 329.285156 225.515625 327.992188 225.515625 327.992188 C 225.351562 327.976562 225.21875 327.851562 225.1875 327.691406 C 227 326.390625 230.007812 326.066406 231.589844 323.921875 C 232.03125 322.121094 228.214844 325.820312 227.117188 325.257812 C 226.039062 325.007812 234.402344 320.914062 234.242188 319.3125 C 245.761719 317.765625 242.539062 328.195312 239.0625 333.980469 C 236.675781 336.347656 231.503906 334.226562 229.273438 332.445312 C 230.75 332.109375 234.992188 332.875 235.519531 331.714844 Z M 233.023438 318.53125 C 232.886719 318.371094 223.273438 324.378906 223.828125 323.339844 C 223.828125 323.339844 228.433594 316.417969 228.433594 316.417969 C 228.511719 316.296875 228.488281 316.132812 228.378906 316.035156 C 227.835938 315.339844 222.796875 322.625 222.480469 321.78125 C 220.777344 315.59375 223.582031 308.285156 231.347656 311.375 C 233.339844 311.820312 232.871094 316.570312 233.304688 317.96875 C 233.332031 318.222656 233.238281 318.410156 233.019531 318.53125 Z M 221.652344 334.136719 C 219.488281 338.421875 214.007812 335.5625 216.269531 331.328125 C 217.210938 329.519531 219.179688 328.679688 220.664062 329.453125 C 222.148438 330.226562 222.589844 332.324219 221.652344 334.136719 Z M 220.035156 340.558594 C 220.75 340.363281 225.15625 348.6875 225.140625 346.453125 C 224.097656 343.984375 221.847656 340.710938 222.917969 338.1875 C 222.910156 338.074219 223.054688 338.019531 223.34375 338.019531 C 223.703125 334.859375 228.289062 344.582031 229.097656 344.824219 C 228.488281 341.621094 225.9375 338.734375 224.421875 335.835938 C 226.675781 336.121094 228.722656 338.761719 230.246094 340.664062 C 233.53125 342.550781 224.679688 333.433594 225.335938 333.421875 C 226.703125 334.601562 238.3125 337.214844 237.496094 340.085938 C 236.941406 360.625 225.433594 354.851562 220.035156 340.558594 Z M 227.425781 355.371094 C 227.503906 354.398438 232.839844 356.003906 232.984375 356.523438 C 239.8125 368.84375 246.429688 381.625 254.007812 393.394531 C 241.703125 385.527344 229.457031 374.445312 219.992188 363.039062 C 219.722656 362.703125 219.792969 362.46875 220.195312 362.332031 C 223.667969 361.144531 226.078125 358.828125 227.425781 355.375 Z M 254.976562 278.066406 C 243.851562 287.027344 246.960938 266.894531 255.761719 271.503906 C 257.320312 272.894531 256.964844 275.835938 254.976562 278.066406 Z M 287.09375 306.371094 C 270.105469 321.484375 242.78125 316.453125 250.878906 289.105469 C 251.332031 288.769531 259.855469 304.835938 260.109375 304.898438 C 261.046875 305.347656 252.992188 286.195312 253.207031 286.101562 C 253.101562 285.789062 253.527344 285.53125 253.75 285.789062 C 253.75 285.789062 263.265625 297.683594 263.265625 297.683594 C 263.859375 298.425781 264.007812 298.34375 263.710938 297.441406 C 262.328125 292.429688 259.058594 288.3125 256.300781 283.964844 C 262.707031 286.984375 270.320312 295.234375 273.433594 302.546875 C 273.621094 303.125 274.019531 302.464844 273.859375 302.148438 C 271.195312 293.992188 265.382812 287.269531 259.269531 281.667969 C 267.222656 283.53125 272.632812 288.820312 276.378906 296.097656 C 275.578125 289.914062 270.960938 285.332031 266.664062 281.4375 C 271.386719 282.289062 276.148438 285.960938 280.359375 288.941406 C 281.011719 289.03125 275.84375 282.996094 275.957031 282.902344 C 286.898438 284.675781 300.625 294.933594 287.089844 306.371094 Z M 271.128906 256.191406 C 273.933594 248.152344 295.925781 250.5 295.84375 259.058594 C 296.136719 263.34375 291.96875 265.777344 294.9375 270.425781 C 300.894531 275.714844 294.390625 283.488281 289.644531 286.503906 C 270.496094 271.136719 271.753906 284.59375 283.5625 268.34375 C 279.492188 270.871094 274.109375 276.132812 269.835938 274.492188 C 276.046875 270.613281 282.066406 265.089844 285.164062 258.785156 C 278.988281 264.710938 270.230469 271 262.9375 273.191406 C 267.230469 268.570312 275.554688 263.484375 278.074219 258.597656 C 278.074219 258.597656 270.984375 264.335938 270.984375 264.335938 C 269.523438 264.863281 275.699219 256.304688 275.46875 256.238281 C 275.539062 253.402344 266.0625 265.582031 266.332031 264.691406 C 267.769531 262.179688 269.925781 259.164062 271.128906 256.191406 Z M 244.375 224.140625 C 249.066406 221.832031 251.453125 225.449219 255.289062 226.589844 C 255.289062 226.589844 263.390625 225.683594 263.390625 225.683594 C 264.457031 225.703125 265.144531 227.753906 265.347656 228.078125 C 269.671875 241.652344 268.21875 254.980469 260.167969 266.574219 C 261.332031 258.167969 261.597656 249.429688 258.871094 240.902344 C 258.230469 240.207031 257.859375 257.371094 257.636719 257.402344 C 256.878906 252.675781 255.972656 244.933594 253.082031 239.664062 C 253.851562 245.984375 255.859375 254.570312 255.066406 261.882812 C 254.988281 263.398438 254.726562 263.429688 254.273438 261.980469 C 249.179688 240.570312 225.730469 236.980469 244.375 224.140625 Z M 204.628906 253.171875 C 209.042969 221.953125 247.402344 235.914062 249.726562 260.921875 C 249.578125 261.597656 248.96875 260.777344 249.070312 260.359375 C 247.472656 257.222656 244.285156 253.53125 241.582031 251.886719 C 241.582031 251.886719 247.222656 261.347656 247.222656 261.347656 C 247.3125 261.433594 247.105469 261.914062 246.894531 261.867188 C 243.460938 256.199219 238.9375 251.597656 233.332031 248.054688 C 231.539062 246.925781 231.453125 247.046875 233.074219 248.414062 C 238.097656 252.636719 242.945312 259.859375 245.886719 265.597656 C 239.699219 262.84375 232.390625 255.238281 225.394531 251.28125 C 244.375 269.917969 249.554688 275.613281 222.046875 255.675781 C 226.796875 262.773438 232.707031 266.695312 239.203125 271.847656 C 231.820312 270.820312 224.871094 266.292969 219.363281 261.152344 C 220.136719 265.851562 234.769531 273.671875 238.398438 276.136719 C 232.226562 276.484375 225.765625 272.847656 220.832031 268.992188 C 218.714844 267.230469 218.621094 267.328125 220.546875 269.296875 C 226.085938 274.960938 232.625 279.042969 240.167969 281.535156 C 225.105469 284.386719 203.296875 270.78125 204.625 253.167969 Z M 218.777344 280.800781 C 242.308594 289.679688 234.617188 282.265625 220.164062 294.566406 C 227.15625 291.792969 237.230469 286.363281 244.660156 286.796875 C 242.394531 289.355469 239.476562 292.46875 238.789062 295.714844 C 243.007812 291.027344 250.453125 277.746094 245.558594 294.351562 C 247.558594 298.144531 246.714844 303.882812 248.636719 307.722656 C 248.855469 308.398438 248.613281 309.136719 248.039062 309.550781 C 244.507812 312.054688 236.34375 315.636719 233.730469 310.074219 C 229.898438 307.125 225.046875 308.511719 222.730469 312.285156 C 213.953125 305.253906 204.5 288.523438 218.78125 280.800781 Z M 203.765625 309.757812 C 207.242188 303.652344 216.074219 308.839844 218.714844 313.347656 C 220.140625 316.480469 221.277344 322.1875 219.132812 324.699219 C 219.132812 324.699219 216.429688 316.777344 216.429688 316.777344 C 214.882812 317.566406 218.191406 323.023438 217.691406 324.984375 C 216.855469 323.707031 209.792969 308.183594 213.796875 319.351562 C 214.292969 321.332031 216.273438 324.828125 215.535156 326.238281 C 215.28125 326.210938 210.660156 318.644531 210.214844 319.40625 C 210.253906 319.515625 213.84375 326.523438 213.894531 326.640625 C 213.828125 327.90625 211.761719 324.238281 211.59375 324.171875 C 209.785156 325.4375 208.457031 318.820312 208.027344 320.671875 C 207.835938 321.769531 210.273438 325.714844 209.136719 325.492188 C 202.066406 321.882812 198.636719 317.535156 203.765625 309.757812 Z M 195.566406 333.882812 C 196.953125 327.3125 206.277344 325.171875 211.183594 328.6875 C 209.539062 329.191406 207.328125 328.5625 205.867188 330.195312 C 205.550781 330.472656 211.902344 330.675781 211.925781 330.773438 C 212.832031 331.476562 205.964844 331.890625 206.578125 332.511719 C 207.109375 332.851562 210.980469 332.652344 209.320312 333.910156 C 205.550781 333.597656 204.617188 333.472656 202.007812 336.496094 C 201.777344 337.171875 210.996094 335.851562 211.152344 335.996094 C 211.605469 337.492188 211.6875 337.984375 211.390625 337.472656 L 207.46875 341.597656 C 207.253906 341.847656 207.894531 341.890625 207.90625 342.097656 C 207.476562 348.003906 192.691406 339.253906 195.570312 333.882812 Z M 212.339844 338.5 C 215.289062 339.394531 214.15625 335.03125 215.949219 340.296875 C 216.015625 344.230469 217.183594 349.808594 218.726562 352.789062 C 218.726562 352.789062 217.507812 344.539062 217.507812 344.539062 C 217.199219 342.488281 217.667969 342.292969 218.910156 343.949219 C 218.945312 344.214844 226.496094 353.484375 225.6875 353.636719 C 218 369.460938 195.796875 356.535156 212.339844 338.5 Z M 233.550781 386.796875 C 225.617188 381.371094 215.949219 375.910156 207.117188 370.359375 C 206.144531 370.328125 208.242188 362.109375 208.089844 361.65625 C 207.695312 360.761719 213.546875 362.945312 213.007812 363.410156 C 213.328125 364.390625 212.023438 369.644531 213.574219 369.960938 C 217.433594 370.617188 213.488281 361.300781 216.972656 363.117188 C 234.597656 385.097656 258.84375 398.632812 277.886719 418.9375 C 262.949219 408.980469 249.039062 396.921875 233.550781 386.796875 Z M 211.058594 411.21875 C 219.070312 394.367188 259.855469 412.027344 271.582031 418.292969 C 265.308594 415.953125 257.640625 416.886719 251.808594 413.734375 C 242.355469 403.984375 233.34375 409.027344 224.933594 416.050781 C 223.042969 418.574219 211.089844 413.507812 211.058594 411.222656 Z M 211.058594 411.21875 " fill-opacity="1" fill-rule="nonzero"/><path fill="#000000" d="M 616.125 505.117188 C 614.6875 503.550781 613.226562 502.183594 611.054688 501.765625 C 610.789062 501.65625 610.660156 501.351562 610.769531 501.089844 C 613.355469 494.855469 610.210938 493.546875 607.390625 489.875 C 615.464844 481.328125 604.105469 484.21875 599.832031 481.054688 C 603.167969 467.257812 606.644531 465.753906 589.273438 465.089844 C 590.164062 462.390625 593.097656 454.402344 592.09375 451.988281 C 590.855469 447.453125 575.078125 453.113281 575.507812 449.726562 C 577.667969 447.765625 590.46875 437.679688 581.769531 436.085938 C 556.855469 431.515625 531.804688 428.550781 506.441406 428.636719 C 491.820312 428.101562 473.566406 428.675781 459.632812 428.195312 C 470.328125 425.007812 481.210938 422.417969 492.28125 420.425781 C 500.933594 420.1875 509.8125 422.296875 518.566406 420.253906 C 520.300781 420.117188 519.582031 418.371094 520.335938 417.875 C 520.472656 417.710938 537.671875 416.609375 537.808594 416.316406 C 538.347656 413.949219 529.96875 412.902344 528.179688 412.253906 C 527.113281 411.914062 529.101562 410.410156 528.949219 409.746094 C 529.109375 407.589844 516.351562 410.757812 516.386719 408.984375 C 516.445312 408.644531 517.636719 406.375 516.679688 406.480469 C 512.535156 406.6875 507.210938 410.367188 503.933594 409.96875 C 503.929688 408.867188 503.941406 407.542969 502.519531 408.421875 C 496.65625 412.21875 492.1875 416.796875 485.109375 417.5625 C 484.175781 417.835938 484.117188 417.710938 484.929688 417.191406 C 492.710938 412.445312 500.382812 406.550781 508.089844 402.054688 C 520.027344 399.058594 531.957031 395.910156 543.871094 392.601562 C 550.316406 395.832031 556.742188 398.46875 563.773438 397.3125 C 566.300781 397.03125 566.867188 395.40625 565.898438 392.792969 C 571.664062 391.492188 579.078125 392.546875 585.367188 391.664062 C 590.960938 391.382812 583.398438 388.003906 582.167969 386.996094 C 580.527344 385.8125 606.203125 376.726562 606.289062 376.078125 C 599.882812 373.425781 588.464844 375.019531 582.253906 373.746094 C 583.011719 372.707031 587.28125 369.527344 583.144531 370.261719 C 567.109375 372.230469 562.96875 382.347656 564.5625 372.917969 C 562.027344 371.507812 557.761719 377.433594 555.742188 377.328125 C 553.160156 372.082031 546.683594 385.3125 545.160156 387.519531 C 536.730469 391.867188 523.675781 394.0625 516.03125 396.503906 C 529.34375 386.996094 540.695312 374.636719 552.121094 363.535156 C 556.136719 364.808594 572.039062 369.523438 572.6875 362.371094 C 570.859375 357.03125 560.304688 357.789062 557.078125 357.433594 C 557.078125 357.433594 565.367188 347.058594 565.367188 347.058594 C 569.761719 347.148438 583.332031 350.492188 586.027344 344.289062 C 583.707031 339.640625 576.992188 338.414062 571.894531 338.980469 C 571.515625 339.027344 571.433594 338.898438 571.65625 338.585938 C 571.65625 338.585938 576.652344 331.53125 576.652344 331.53125 C 584.007812 329.894531 596.328125 328.898438 596.457031 318.757812 C 593.675781 316.464844 585.96875 319.578125 583.339844 319.921875 C 582.882812 320.035156 582.769531 319.886719 583.003906 319.476562 L 584.183594 317.429688 C 584.351562 317.144531 584.589844 316.949219 584.90625 316.847656 C 601.785156 315.226562 604.691406 271.714844 587.011719 292.292969 C 577.644531 305.628906 585.59375 313.601562 579.9375 320.226562 C 578.945312 313.015625 576.726562 307.078125 569.050781 304.714844 C 563.9375 307.167969 571.273438 321.542969 573.90625 325.359375 C 576.167969 327.515625 568.867188 335.03125 568.390625 336.914062 C 565.773438 333.015625 562.890625 327.675781 556.773438 326.707031 C 556.191406 326.550781 555.824219 326.769531 555.671875 327.355469 C 553.0625 335.402344 557.203125 340.429688 561.890625 345.308594 C 561.890625 345.308594 553.980469 355.410156 553.980469 355.410156 C 551.945312 352.304688 549.726562 338.785156 541.992188 341.363281 C 540.261719 341.90625 539.496094 343.257812 539.699219 345.40625 C 544.535156 369.148438 560.148438 352.292969 527.984375 380.867188 C 533.847656 371.703125 531.253906 366.390625 528.796875 356.632812 C 520.152344 361.902344 519.078125 377.085938 519.289062 387.117188 C 513.046875 393.460938 502.957031 400.949219 495.890625 404.46875 C 497.328125 401.003906 498.792969 397.503906 497.039062 393.746094 C 496.839844 391.402344 497.253906 386.796875 495.746094 385.585938 C 486.851562 393.679688 485.933594 402.550781 484.25 413.277344 C 470.601562 424.105469 452.6875 430.054688 436.015625 432.191406 C 427.375 434.605469 445.179688 423.75 446.324219 421.75 C 451.105469 422.550781 460.800781 427.675781 464.898438 423.070312 C 464.660156 418.199219 459.769531 414.925781 455.125 414.1875 C 454.066406 414.222656 459.871094 409.601562 459.792969 409.476562 C 464.289062 408.078125 473.226562 410.667969 475.089844 405.402344 C 476.414062 403.746094 483.429688 401.855469 479.554688 399.183594 C 479.183594 398.847656 477.375 398.339844 478.078125 397.757812 C 481.804688 395.046875 498.425781 381.140625 487.652344 381.765625 C 489.078125 374.917969 498.214844 371.484375 501.472656 363.484375 C 510.386719 355.308594 512.78125 345.972656 505.710938 335.144531 C 498.019531 339.242188 495.511719 351.617188 500.644531 359.394531 C 499.398438 363.121094 495.035156 369.097656 492.160156 370.730469 C 493.101562 368.847656 498.09375 353.800781 494.945312 356.007812 C 494.945312 356.007812 478.632812 373.320312 478.632812 373.320312 C 478.265625 371.273438 479.023438 367.277344 478.128906 364.609375 C 473.976562 365.8125 468.648438 383.574219 466.761719 388.878906 C 466.664062 389.183594 466.203125 389.167969 466.128906 388.851562 C 465.425781 385.699219 464.085938 382.722656 461.847656 380.378906 C 450.601562 408.679688 470.960938 396.957031 437.347656 424.230469 C 448.289062 403.988281 448.371094 385.597656 461.589844 364.394531 C 474.132812 345.167969 482.484375 330.605469 486.105469 309.105469 C 496.875 344.886719 525.472656 322.199219 548.421875 315.796875 C 552.976562 314.75 550.496094 309.644531 547.605469 308.265625 C 549.75 295.40625 553.367188 279.660156 535.347656 281.039062 C 545.960938 268.160156 535.398438 257.042969 525.46875 249.222656 C 520.128906 243.363281 512.816406 250.042969 508.304688 251.832031 C 496.179688 230.832031 478.691406 233.34375 471.707031 255.886719 C 442.210938 228.695312 431.453125 276.308594 457.335938 290.925781 C 464.226562 295.210938 476.011719 299.292969 483.421875 294.855469 C 484.652344 294.082031 486.253906 295.605469 485.414062 296.878906 C 479.257812 305.960938 478.484375 324.140625 472.402344 334.273438 C 471.207031 329.742188 468.492188 326.507812 464.261719 324.570312 C 463.816406 324.367188 463.820312 324.171875 464.269531 323.972656 C 470.675781 321.492188 477.722656 312.167969 467.960938 309.132812 C 467.257812 308.816406 466.800781 308.117188 466.789062 307.347656 C 466.691406 298.34375 453.902344 298.128906 449.214844 303.992188 C 446.378906 298.65625 442.742188 293.003906 436.363281 291.472656 C 430.015625 289.398438 427.878906 295.296875 424.152344 298.851562 C 400.632812 308.164062 436.820312 289.265625 400.429688 276.421875 C 419.46875 257.753906 420.207031 234.058594 386.847656 235.25 C 375.820312 212.78125 364.363281 223.128906 349.03125 235.679688 C 339.613281 218.582031 308.855469 215.6875 304.300781 239.910156 C 302.65625 249.433594 306.007812 258.15625 309.726562 266.816406 C 309.027344 270.457031 306.859375 274.003906 306.328125 277.84375 C 305.277344 287.566406 291.472656 296.699219 301.242188 305.875 C 309.742188 315.042969 321.496094 316.863281 331.386719 310.632812 C 330.886719 323.988281 333.214844 338.023438 333.671875 350.894531 C 326.902344 352.730469 319.839844 355.605469 320.183594 363.929688 C 317.34375 375.089844 322.371094 383.742188 333.875 387.011719 C 336.726562 416.535156 340.550781 435.433594 347.296875 460.988281 C 347.210938 461.894531 337.761719 453.078125 337.535156 453.21875 C 337.359375 453.070312 337.246094 452.886719 337.199219 452.667969 C 335.429688 440.707031 329.222656 429.316406 327.226562 417.839844 C 334.324219 409.355469 325.246094 376.28125 324.648438 402.546875 C 324.035156 403.371094 322.832031 400.996094 322.871094 402.558594 C 322.871094 402.578125 324.148438 413.429688 323.308594 412.554688 C 323.503906 411.707031 308.355469 384.019531 311.210938 383.910156 C 314.96875 380.847656 322.445312 370.011719 316.976562 366.136719 C 311.699219 366.167969 309.6875 375.820312 307.636719 378.1875 C 307.738281 377.296875 301.496094 363.703125 302.371094 362.773438 C 305.964844 361 314.816406 345.757812 305.8125 347.652344 C 301.566406 349.117188 300.511719 355.582031 298.707031 357.882812 C 298.707031 357.882812 294.792969 348.410156 294.792969 348.410156 C 294.601562 347.953125 294.699219 347.566406 295.078125 347.246094 C 308.640625 335.128906 297.445312 323.074219 291.789062 342.496094 C 290.949219 342.921875 289.464844 336.777344 289.054688 336.578125 C 289.480469 332.371094 290.601562 327.351562 286.65625 324.996094 C 279.878906 320.675781 276.710938 330.046875 280.214844 334.761719 C 281.554688 337.140625 287.683594 338.285156 286.894531 341.808594 C 283.085938 341.242188 271.910156 338.464844 273.445312 344.480469 C 277.679688 349.390625 285.886719 348.390625 291.332031 349.238281 C 291.332031 349.238281 294.339844 356.027344 294.339844 356.027344 C 292.296875 356.523438 285.675781 354 282.859375 356.648438 C 282.089844 357.1875 281.996094 358.371094 282.722656 358.992188 C 286.878906 362.691406 291.777344 364.539062 297.414062 364.523438 C 297.996094 364.523438 298.523438 364.875 298.75 365.417969 C 298.75 365.417969 303.695312 377.175781 303.695312 377.175781 C 303.878906 377.609375 303.769531 377.703125 303.367188 377.460938 C 282.558594 368.957031 286.542969 382.238281 306.53125 385.863281 C 307.640625 386.484375 317.492188 409.214844 318.082031 410.222656 C 287.519531 393.792969 286.882812 417.132812 319.070312 414.6875 C 326.789062 425.195312 330.4375 439.347656 335.628906 451.378906 C 315.773438 439.636719 288.394531 433.457031 264.078125 435.660156 C 222.996094 438.015625 195.820312 439.449219 158.933594 436.75 C 155.886719 436.527344 154.863281 438.449219 156.660156 440.917969 C 170.453125 457.578125 151.71875 439.710938 154.835938 460.722656 C 154.621094 462.429688 149.296875 460.84375 148.984375 462.441406 C 148.984375 462.441406 148.789062 463.769531 148.789062 463.769531 C 148.753906 463.996094 148.558594 464.15625 148.335938 464.144531 C 145.160156 464.019531 138.882812 462.726562 136.730469 463.878906 C 135.527344 467.316406 137.875 472.855469 135.402344 475.957031 C 135.402344 475.957031 131.667969 476.339844 131.667969 476.339844 C 130.488281 476.445312 129.667969 477.726562 130.113281 478.835938 C 135.90625 489.757812 113.949219 474.042969 121.699219 488.777344 C 121.804688 489.035156 121.6875 489.332031 121.433594 489.445312 C 117.269531 491.335938 118.105469 493.917969 118.1875 497.722656 C 118.195312 498.007812 117.941406 498.242188 117.652344 498.214844 C 112.28125 497.929688 112.164062 502.9375 109.238281 505.714844 C 95.722656 509.433594 84.917969 528.871094 104.667969 531.402344 C 178.644531 531.644531 265.277344 525.941406 340.878906 525.902344 C 340.347656 535.179688 348.304688 534.261719 354.378906 536.59375 C 364.191406 537.582031 387.292969 539.421875 388.546875 525.699219 C 482.207031 527.222656 539.011719 529.066406 614.214844 531.390625 C 642.847656 534.667969 636.722656 511.109375 616.128906 505.117188 Z M 591.96875 290.144531 C 601.730469 286.777344 593.3125 313.21875 586.421875 312.980469 C 585.683594 313.214844 584.886719 312.71875 584.773438 311.945312 C 583.601562 304.277344 585.390625 294.984375 591.96875 290.144531 Z M 504.355469 338.933594 C 506.117188 339 509.261719 353.71875 505.65625 349.8125 C 504.304688 348.214844 503.117188 348.648438 501.78125 349.652344 C 500.214844 346.738281 502.988281 341.980469 504.355469 338.933594 Z M 548.015625 311.902344 C 548.351562 312.21875 548.210938 312.835938 547.75 312.933594 C 538.179688 315.359375 529.953125 319.277344 520.703125 322.753906 C 506.675781 328.027344 494.136719 320.082031 488.65625 307.261719 C 487.632812 304.871094 488.601562 303.019531 490.1875 301.308594 C 507.695312 303.613281 532.941406 300.390625 548.011719 311.902344 Z M 541.648438 285.585938 C 549.046875 289.574219 546.894531 299.4375 545.242188 306.574219 C 534.996094 304.074219 523.742188 300.488281 512.589844 300.195312 C 521.273438 296.839844 532.199219 280.246094 541.648438 285.582031 Z M 509.789062 255.175781 C 511.851562 252.015625 520.785156 246.636719 523.644531 250.71875 C 525.664062 255.976562 529.285156 257.234375 532.398438 261.195312 C 542.949219 275.59375 516.707031 294.179688 508.007812 294.441406 C 514.078125 290.886719 519.277344 286.144531 522.933594 280.136719 C 517.730469 284.527344 511.3125 290.550781 505.3125 292.78125 C 511.753906 287.464844 518.6875 279.097656 519.054688 271.308594 C 514.09375 279.722656 507.527344 286.75 499.320312 292.039062 C 506.511719 282.933594 514.671875 273.769531 514.644531 261.210938 C 511.21875 271.042969 503.785156 282.761719 493.597656 289.464844 C 501.070312 280.953125 510.3125 267.933594 509.789062 255.171875 Z M 481.917969 293.816406 C 460.492188 297.269531 441.816406 276.550781 447.910156 255.636719 C 450.605469 243.628906 465.652344 252.957031 469.699219 258.433594 C 470.320312 263.363281 468.378906 268.121094 469.148438 273.1875 C 469.496094 282.601562 475.652344 289.363281 481.917969 293.8125 Z M 486.738281 260.429688 C 482.746094 264.863281 482.003906 274.480469 481.964844 279.320312 C 480.667969 273.980469 480.160156 268.207031 480.53125 263.015625 C 478.015625 267.933594 478.359375 280.585938 481.242188 287.914062 C 472.035156 278.054688 472.753906 259.089844 480.035156 247.570312 C 482.230469 243.972656 490.667969 236.621094 494.964844 241.433594 C 501.734375 249.007812 508.902344 254.371094 505.816406 266.058594 C 503.546875 274.351562 498.707031 279.132812 493.300781 285.265625 C 495.273438 279.703125 500.683594 274.234375 502.953125 268.230469 C 500.628906 269.035156 494.394531 276.582031 492.582031 279.242188 C 494.066406 274.199219 496.835938 269.324219 499.917969 264.503906 C 500.046875 264.347656 499.878906 263.988281 499.707031 264.238281 C 496.351562 268.085938 490.4375 273.019531 489.105469 278.652344 C 488.292969 274.632812 491.40625 268.109375 494.269531 264.257812 C 488.417969 268.476562 486.269531 276.859375 486.355469 284.371094 C 483.402344 276.867188 484.175781 268.152344 486.738281 260.425781 Z M 461.890625 353.910156 C 455.078125 366.78125 449.019531 379.996094 443.714844 393.550781 C 439.792969 403.554688 436.785156 419.804688 430.523438 433.429688 C 402.015625 442.191406 379.777344 459.058594 365.921875 485.152344 C 366.511719 474.773438 369.503906 465.222656 374.894531 456.496094 C 377.464844 452.335938 382.097656 449.71875 383.824219 445.148438 C 384.648438 441.902344 387.1875 434.421875 385.164062 429.789062 C 384.75 429.851562 383.050781 431 382.890625 430.144531 C 382.890625 430.144531 380.914062 421.066406 380.914062 421.066406 C 379.496094 416.203125 375.515625 431.300781 374.859375 432.871094 C 374.667969 433.777344 373.730469 432.875 373.3125 432.683594 C 370.492188 437.902344 372.113281 446.664062 373.578125 452.84375 C 368.949219 459.175781 364.4375 465.675781 363.757812 474.039062 C 360.285156 448.335938 365.085938 418.789062 383.085938 398.164062 C 390.832031 395.65625 396.027344 388.914062 395.257812 380.933594 C 395.257812 380.933594 400.988281 375.363281 400.988281 375.363281 C 406.53125 379.957031 414.210938 381.585938 421.808594 379.515625 C 422.386719 379.386719 422.738281 378.769531 422.546875 378.207031 C 422.058594 377.066406 421.769531 375.667969 423.425781 375.578125 C 423.09375 375.050781 445.761719 374.433594 442.433594 372.398438 C 442.21875 372.019531 432.257812 369.769531 433.316406 368.773438 C 433.777344 368.214844 434.457031 367.003906 433.28125 366.804688 C 426.65625 366.078125 420.398438 364.574219 413.746094 364.984375 C 413.097656 364.972656 414.027344 362.148438 413.945312 361.859375 C 405.640625 361.164062 401.300781 372.742188 393.679688 376.835938 C 393.019531 377.464844 391.355469 374.125 390.957031 373.929688 C 390.738281 373.632812 390.8125 373.503906 391.179688 373.539062 C 394.359375 373.859375 397.046875 373.109375 399.246094 371.292969 C 413.804688 359.300781 402.894531 328.667969 382.75 334.789062 C 381.980469 335.082031 382.425781 333.433594 382.3125 333.113281 C 391.453125 332.847656 397.5 322.429688 397.886719 313.851562 C 397.765625 312.785156 401.503906 314.234375 401.878906 314.046875 C 402.242188 314.105469 402.296875 314.269531 402.046875 314.535156 C 394.15625 323.351562 410.511719 330.519531 415.71875 332.914062 C 403.65625 351.703125 421.863281 374.019531 440.949219 357.984375 C 443.03125 356.621094 444.550781 353.898438 446.714844 352.953125 C 451.519531 355.085938 457.800781 353.304688 461.894531 353.90625 Z M 351.757812 355.445312 C 349.191406 354.183594 347.382812 348.335938 345.703125 345.714844 C 345.515625 350.125 351.273438 356.261719 349.304688 359.472656 C 343.019531 354.699219 332.527344 350.164062 336.242188 340.558594 C 338.355469 334.277344 345.570312 322.835938 353.546875 329.902344 C 360.039062 335.652344 362.296875 342.800781 360.316406 351.355469 C 359.324219 352.992188 358.1875 342.402344 357.695312 342.636719 C 357.492188 345.632812 358.40625 349.835938 357.398438 352.859375 C 355.558594 351.027344 354.859375 343.617188 353.21875 340.050781 C 352.1875 338.191406 355.035156 352.886719 354.800781 352.683594 C 354.351562 354.960938 347.703125 340.28125 347.402344 340.484375 C 346.703125 340.121094 351.929688 355.378906 351.757812 355.445312 Z M 340.585938 304.820312 C 343.65625 302.65625 345.570312 298.632812 347.675781 295.683594 C 348.277344 296.085938 344.460938 309.480469 345.183594 309.851562 C 346.023438 310.207031 350.355469 295.011719 350.851562 294.886719 C 352.203125 316.261719 352.839844 310.582031 354.003906 293.316406 C 357.820312 301.605469 361.617188 312.261719 366.640625 320.800781 C 364.277344 323.570312 360.5 325.984375 359.011719 329.859375 C 358.875 330.132812 358.707031 330.152344 358.511719 329.914062 C 352.382812 322.554688 346.1875 322.535156 339.925781 329.851562 C 339.011719 330.574219 337.792969 333.125 337.035156 332.914062 C 337.246094 332.222656 336.054688 304.851562 336.769531 304.351562 C 338.582031 302.375 342.425781 297.632812 344.078125 297.738281 C 344.097656 297.933594 340.410156 304.628906 340.59375 304.820312 Z M 364.949219 294.332031 C 370.839844 298.226562 376.730469 304.007812 381.5 310.917969 C 379.75 304.40625 372.023438 295.542969 365.625 289.847656 C 365.476562 289.710938 365.644531 289.425781 365.835938 289.539062 C 371.527344 292.832031 377.628906 296.390625 381.820312 301.394531 C 379.507812 294.886719 370.824219 288.421875 364.65625 285.039062 C 373.214844 285.539062 389.847656 292.226562 392.777344 303.035156 C 395.394531 312.089844 393.996094 320.835938 387.558594 328.171875 C 386.359375 329.53125 385.054688 329.898438 383.644531 329.273438 C 366.007812 324.367188 365.785156 308.179688 359.292969 294.070312 C 364.496094 299.171875 369.125 304.871094 373.558594 310.558594 C 371.714844 304.902344 368.320312 299.382812 364.949219 294.332031 Z M 377.621094 366.683594 C 377.878906 366.421875 385.1875 364.550781 384.675781 363.785156 C 384.210938 362.234375 382.878906 364.835938 382.203125 363.859375 C 381.957031 362.683594 388.46875 361.949219 387.011719 360.492188 C 382.441406 362.628906 377.84375 362.042969 373.121094 362.292969 C 375.175781 360.722656 380.347656 358.578125 382.308594 356.777344 C 384.121094 355.082031 373.570312 360.503906 373.734375 360.207031 C 371.769531 359.484375 379.058594 354.558594 378.09375 353.472656 C 376.003906 355.761719 370.078125 359.324219 366.894531 358.984375 C 364.175781 357.179688 373.886719 344.742188 372.757812 338.402344 C 372.679688 335.878906 366.6875 352.347656 366.328125 352.507812 C 365.507812 353.140625 370.40625 339.539062 370.488281 338.191406 C 368.578125 341.425781 367.414062 347.851562 364.519531 351.394531 C 364.289062 344.78125 361.957031 338 360.277344 331.730469 C 369.019531 318.75 366.941406 325.71875 377.835938 329.539062 C 379.707031 339.8125 372.277344 349.808594 366.671875 357.875 C 377.496094 357.167969 379.875 347.6875 382.050781 338.546875 C 407.898438 329.570312 412.925781 387.921875 377.621094 366.679688 Z M 377.871094 363.359375 C 378.265625 363.320312 379.53125 362.890625 379.265625 363.753906 C 379.1875 364.648438 376.808594 363.558594 377.871094 363.359375 Z M 360.96875 279.589844 C 358.644531 287.5 343.925781 282.851562 346.550781 275.03125 C 348.878906 267.121094 363.59375 271.769531 360.96875 279.589844 Z M 356.257812 359 C 361.128906 354.148438 367.140625 360.339844 362.160156 365.082031 C 357.292969 369.9375 351.277344 363.746094 356.257812 359 Z M 360.082031 375.691406 C 362.628906 377.53125 366.125 384.40625 367.644531 384.542969 C 367.691406 384.199219 361.761719 372.628906 362.269531 372.339844 C 366.273438 375.820312 369.046875 381.433594 372.4375 385.660156 C 373.3125 385.652344 366.042969 373.210938 366.179688 372.929688 C 365.933594 372.523438 366.578125 372.550781 366.710938 372.804688 C 368.234375 375.042969 373.398438 380.304688 376.308594 379.90625 C 374.734375 378.507812 370.273438 375.300781 370.644531 372.671875 C 370.644531 372.671875 375.960938 375.351562 375.960938 375.351562 C 377.652344 374.855469 369.949219 371.96875 370.066406 369.980469 C 373.164062 370.914062 381.070312 371.976562 384.214844 372.699219 C 412.621094 387.636719 360.933594 414.535156 360.082031 375.691406 Z M 429.320312 335.535156 C 429.34375 335.855469 429.429688 335.875 429.578125 335.589844 C 429.777344 335.507812 431.53125 331.132812 431.921875 331.472656 C 431.550781 334.457031 430.1875 337.832031 430.574219 341.15625 C 431.285156 340.894531 433.628906 327.578125 435.476562 329.957031 C 435.058594 331.835938 433.132812 346.109375 434.363281 343.859375 C 434.363281 343.859375 438.132812 330.273438 438.132812 330.273438 C 438.652344 329.777344 437.664062 341.828125 437.824219 341.84375 C 439.363281 341.222656 439.730469 336.394531 441.042969 334.46875 C 443.789062 328.183594 442.414062 340.304688 443.042969 342.03125 C 444.539062 340.980469 443.628906 336.40625 444.5625 334.246094 C 457.230469 343.726562 436.359375 365.777344 423.210938 361 C 412.296875 358.023438 412.597656 342.335938 418.078125 335.011719 C 420.976562 331.144531 427.226562 328.828125 431.699219 327.082031 C 433.238281 326.4375 428.183594 333.046875 429.316406 335.539062 Z M 437.183594 321.0625 C 438.007812 319.808594 440.054688 319.707031 441.75 320.828125 C 443.445312 321.953125 444.152344 323.878906 443.324219 325.132812 C 442.496094 326.382812 440.453125 326.484375 438.757812 325.359375 C 437.0625 324.238281 436.355469 322.3125 437.183594 321.058594 Z M 468.105469 344.078125 C 464.984375 351.703125 454.742188 352.894531 448.65625 350.769531 C 452.179688 343.816406 451.246094 337.277344 447.515625 330.777344 C 453.003906 332.582031 457.367188 339.550781 460.726562 342.945312 C 458.890625 336.40625 452.257812 331.503906 448.683594 327.851562 C 448.683594 327.851562 457.617188 332.886719 457.617188 332.886719 C 456.613281 330.765625 453.5625 328.710938 451.417969 327.191406 C 447.371094 324.246094 461.222656 330.523438 461.984375 329.535156 C 461.984375 329.535156 449.65625 323.636719 449.65625 323.636719 C 460.652344 323.871094 474.28125 330.226562 468.109375 344.074219 Z M 459.988281 303.21875 C 464.773438 305.332031 462.660156 310.816406 468.273438 312.558594 C 469.335938 313.160156 469.710938 314.503906 469.113281 315.566406 C 464.394531 323.765625 456.824219 318.554688 449.761719 321.0625 C 448.410156 320.457031 457.988281 318.585938 456.253906 317.847656 C 453.785156 317.605469 451.140625 318.550781 449.011719 318.90625 C 449.941406 317.582031 452.113281 316.871094 453.441406 315.726562 C 454.25 314.078125 449.367188 317.152344 449.164062 317.027344 C 449.105469 314.96875 455.015625 313.789062 456.285156 312.292969 C 453.550781 311.703125 450.039062 313.800781 447.449219 315.085938 C 447.734375 309.109375 450.683594 298.800781 459.988281 303.21875 Z M 418.953125 303.378906 C 422.882812 301.882812 426.109375 301.820312 428.679688 297.855469 C 433.261719 290.789062 442.019531 297.132812 445.59375 301.792969 C 448.605469 305.660156 445.699219 310.996094 444.609375 315.40625 C 443.746094 315.722656 435.433594 302.34375 436.160156 305.515625 C 436.253906 307.089844 439.535156 316.558594 436.898438 311.316406 C 436.898438 311.316406 431.554688 306.308594 431.554688 306.308594 C 430.859375 308.597656 434.6875 312.917969 435.894531 315.546875 C 435.863281 315.171875 417.714844 304.113281 418.953125 303.378906 Z M 414.28125 304.304688 C 414.367188 304.535156 433.929688 317.105469 433.726562 317.480469 C 429.972656 317.046875 424.042969 315.664062 420.996094 317.492188 C 420.996094 317.492188 432.503906 319.265625 432.503906 319.265625 C 432.941406 319.300781 432.398438 319.746094 432.210938 319.753906 C 427.960938 319.050781 417.308594 319.664062 415.632812 323.058594 C 418.898438 322.1875 424.234375 321.140625 426.78125 322.390625 C 422.480469 323.964844 420.421875 329.6875 416.546875 330.777344 C 409.941406 329.335938 396.855469 320.453125 406.09375 314.273438 C 411.050781 312.128906 412.289062 308.390625 414.277344 304.304688 Z M 413.179688 293.472656 C 410.800781 300.804688 408.859375 312.464844 398.460938 310.355469 C 396.101562 300.070312 394.613281 291.957031 383.738281 286.726562 C 380.734375 284.695312 395.828125 290.164062 397.519531 290.863281 C 391.988281 285.210938 379.667969 280.445312 370.101562 279.394531 C 378.5 276.144531 413.863281 276.285156 413.183594 293.472656 Z M 399.199219 240.058594 C 418.546875 244.511719 407.550781 266.796875 396.441406 274.816406 C 388.539062 273.878906 373.875 274.648438 369.132812 274.550781 C 378.277344 273.199219 387.402344 271.417969 396.507812 269.203125 C 397.824219 268.882812 397.804688 268.710938 396.445312 268.6875 C 387.445312 268.527344 375.332031 268.882812 366.683594 272.5625 C 372.871094 267.136719 390.367188 260.902344 401.136719 256.417969 C 391.453125 257.46875 376.703125 263.488281 367.359375 269.871094 C 373.4375 261.53125 386.222656 254.808594 393.613281 248.820312 C 381.777344 251.660156 372.914062 260.859375 364.078125 267.511719 C 369.234375 260.730469 375.957031 255.035156 378.066406 252.328125 C 374.738281 252.710938 366.316406 261.160156 363.625 263.082031 C 368.058594 255.421875 374.703125 248.796875 381.515625 243.097656 C 388.507812 237.441406 390.410156 237.066406 399.199219 240.058594 Z M 345.738281 246.652344 C 347.039062 237.332031 364.734375 223.460938 373.867188 224.636719 C 377.523438 225.238281 383.566406 234.019531 384.132812 237.484375 C 374.207031 243.472656 367.144531 252.800781 360.820312 262.28125 C 363.113281 255.410156 369.386719 244.601562 369 237.339844 C 365.011719 246.507812 360.210938 255.511719 354.144531 263.351562 C 356.085938 258.066406 358.160156 252.574219 359.347656 246.953125 C 358.972656 246.144531 351.828125 262.847656 351.523438 262.484375 C 351.523438 262.484375 352.714844 249.15625 352.714844 249.15625 C 352.738281 248.835938 352.257812 248.722656 352.136719 249.019531 C 352.136719 249.019531 347.503906 261.71875 347.503906 261.71875 C 345.125 258.703125 345.382812 250.382812 345.734375 246.652344 Z M 310.136719 234.035156 C 317.855469 220.226562 339.132812 224.984375 345.328125 238.089844 C 340.480469 246 340.273438 255.808594 343.773438 264.257812 C 344.90625 269.171875 324.273438 247.933594 322.269531 245.945312 C 326.101562 254.023438 333.410156 260.765625 339.253906 266.75 C 334.792969 264.523438 328.25 260.929688 324.277344 260.433594 C 326.984375 262.898438 330.359375 264.742188 333.195312 266.832031 C 327.488281 265.914062 318.832031 262.457031 313.027344 265.210938 C 308.410156 257.035156 305.113281 243.300781 310.140625 234.035156 Z M 330.402344 305.160156 C 321.617188 314.140625 309.992188 310.792969 302.847656 301.882812 C 298.882812 296.945312 304.574219 291.65625 306.84375 287.503906 C 309.21875 283.164062 310.230469 278.121094 311.539062 273.222656 C 314.097656 261.96875 332.609375 270.566406 336.71875 274.761719 C 321.09375 276.230469 321.40625 277.445312 336.425781 277.675781 C 333.433594 279.59375 327.535156 280.667969 323.839844 282.996094 C 321.078125 285.085938 336.742188 282.0625 338.46875 281.660156 C 347.546875 279.28125 311.050781 296.253906 308.410156 296.523438 C 317.355469 296.335938 328.472656 289.515625 336.398438 287.605469 C 336.398438 287.605469 322.773438 299.800781 322.773438 299.800781 C 321.488281 300.953125 321.609375 301.125 323.136719 300.316406 C 328.957031 297.742188 334.976562 291.460938 341.40625 287.886719 C 341.386719 288.082031 336.390625 294.703125 336.980469 294.824219 C 337.230469 295.421875 342.472656 289.269531 342.671875 289.257812 C 340.238281 295.011719 334.066406 300.945312 330.40625 305.160156 Z M 323.804688 376.144531 C 320.710938 371.804688 323.921875 367.394531 323.636719 362.199219 C 323.332031 356.585938 331.898438 354.441406 336.035156 353.835938 C 336.703125 353.636719 347.230469 363.195312 347.75 363.359375 C 348.34375 364.339844 337.433594 361.242188 337.367188 361.46875 C 335.503906 361.894531 344.917969 365.09375 344.773438 365.292969 C 340.613281 366.804688 332.8125 365.429688 327.609375 364.722656 C 334.917969 369.648438 341.875 369.445312 350.546875 368.960938 C 346.914062 371.789062 339.039062 373.269531 334.753906 376.625 C 333.363281 378.742188 349.472656 371.488281 349.460938 371.882812 C 339.777344 380.402344 334.847656 390.6875 323.804688 376.144531 Z M 339.554688 386.246094 C 339.292969 385.890625 347.015625 379.21875 347.203125 378.90625 C 347.453125 378.640625 347.898438 378.972656 347.710938 379.289062 C 347.710938 379.289062 345.40625 383.652344 345.40625 383.652344 C 345.105469 384.308594 346.140625 383.792969 346.289062 383.464844 C 349.125 379.097656 353.460938 376.296875 355.597656 371.6875 C 357.464844 382.328125 359.929688 392.03125 370.195312 398.78125 C 362.429688 416.355469 337.25 401.933594 339.554688 386.246094 Z M 344.835938 425.242188 C 343.246094 416.210938 341.144531 406.933594 340.410156 397.941406 C 348.265625 408.8125 363.410156 414.195312 371.308594 399.191406 C 372.316406 398.183594 373.992188 399.546875 375.246094 399.289062 C 375.746094 399.289062 375.84375 399.488281 375.550781 399.886719 C 358.019531 422.398438 357.625 451.140625 359.441406 477.1875 C 355.445312 458.988281 347.308594 445.199219 344.835938 425.242188 Z M 357.671875 473.132812 C 355.230469 471.71875 352.574219 465.984375 349.558594 463.53125 C 348.792969 462.175781 349.292969 460.378906 348.539062 458.933594 C 346.964844 453.535156 356.699219 471.394531 357.671875 473.132812 Z M 142.101562 466.691406 C 191.027344 470.8125 234.511719 465.027344 286.992188 466.332031 C 239.640625 468.457031 190.328125 471.53125 142.433594 473.488281 C 141.320312 473.878906 142.410156 466.949219 142.101562 466.691406 Z M 344.722656 517.128906 C 264.980469 516.183594 178.476562 525.746094 101.714844 521.179688 C 104.792969 515.515625 110.1875 512.039062 116.601562 513.761719 C 190.550781 515.273438 264.328125 513.484375 338.234375 515.589844 C 265.210938 503.53125 189.03125 514.445312 115.945312 510.605469 C 115.902344 507.363281 114.683594 502.917969 119.664062 503.042969 C 177.898438 505.960938 235.804688 503.417969 294.183594 507.21875 C 310.96875 509.027344 329.898438 509.730469 344.71875 517.125 Z M 625.195312 523.109375 C 542.28125 520.101562 454.765625 517.378906 383.550781 517.386719 C 380.574219 518.402344 378.941406 520.472656 378.660156 523.597656 C 370.570312 524.953125 359.417969 525.125 351.488281 523.351562 C 326.585938 489.171875 169.789062 504.539062 122.832031 500.625 C 122.550781 500.628906 122.429688 500.492188 122.453125 500.210938 C 122.453125 500.210938 122.960938 494.8125 122.960938 494.8125 C 191.0625 500.535156 266.214844 486.945312 333.503906 507.578125 C 339.277344 509.203125 345.292969 513.660156 350.144531 515.320312 C 331.570312 503.144531 317.066406 498.738281 295.863281 495.683594 C 239.835938 489.449219 183.203125 494.136719 126.972656 493.394531 C 126.15625 491.566406 126.941406 488.328125 125.40625 486.210938 C 198.621094 490.804688 288.371094 459.257812 352.574219 507.910156 C 330.417969 475.722656 275.011719 476.859375 236.671875 478.828125 C 204.25 481.75 169.609375 481.441406 136.765625 483.085938 C 136.441406 483.101562 136.152344 482.878906 136.089844 482.558594 L 135.503906 479.726562 C 135.414062 479.28125 135.59375 479.011719 136.039062 478.925781 C 138.328125 478.742188 139.804688 476.957031 141.675781 476.046875 C 164.773438 476.785156 187.78125 475.886719 210.710938 473.355469 C 260.433594 468.855469 334.921875 460.382812 360.265625 513.191406 C 329.71875 431.011719 213.089844 478.40625 158.824219 462.980469 C 163.042969 449.316406 152.410156 452.558594 170.910156 451.492188 C 202.035156 451.082031 230.648438 447.628906 260.355469 444.679688 C 229.816406 445.714844 197.660156 448.242188 166.960938 446.921875 C 166.960938 446.921875 163.4375 441.71875 163.4375 441.71875 C 163.199219 441.363281 163.296875 441.199219 163.722656 441.222656 C 195.4375 442.976562 226.128906 440.402344 257.1875 438.496094 C 301.839844 433.417969 357.109375 453.097656 362.980469 504.007812 C 362.957031 504.269531 363.230469 505.039062 363.371094 504.828125 C 388.742188 408.683594 503.628906 431.042969 578.21875 439.847656 C 578.527344 439.882812 578.578125 440.015625 578.371094 440.246094 C 578.484375 440.355469 568.890625 450.277344 569.628906 450.242188 C 503.542969 451.960938 398.097656 422.074219 368.378906 500.621094 C 397.3125 448.804688 460.40625 443.496094 513.4375 451.082031 C 537.769531 454.105469 563.378906 454.078125 587.246094 454.921875 C 587.246094 454.921875 583.761719 466.816406 583.761719 466.816406 C 561.53125 466.832031 538.273438 463.972656 515.726562 463.691406 C 543.082031 468.128906 570.953125 470.390625 598.828125 471.183594 C 598.828125 471.183594 595.539062 483.703125 595.539062 483.703125 C 595.375 485.488281 555.253906 481.9375 554.457031 482.492188 C 568.78125 484.339844 587.441406 486.277344 604.484375 486.394531 C 605.054688 486.394531 605.121094 486.574219 604.679688 486.9375 C 602.554688 487.996094 603.0625 490.75 601.808594 491.917969 C 524.773438 488.304688 431.308594 460.621094 366.761719 516.566406 C 432.070312 467.34375 523.394531 490.515625 598.675781 495.273438 C 608.53125 496.664062 608.046875 491.492188 606.597656 503.75 C 525.980469 501.742188 430.050781 479.425781 372.175781 518.648438 C 447.261719 487.621094 533.503906 503.941406 611.835938 508.058594 C 611.226562 512.007812 612.175781 512.945312 607.320312 512.410156 C 533.632812 511.0625 454.789062 493.855469 383.554688 517.390625 C 446.542969 504.351562 524.90625 511.730469 585.308594 512.691406 C 598.210938 513.832031 607.371094 512.003906 617.222656 514.359375 C 619.222656 515.300781 627.777344 520.421875 625.199219 523.109375 Z M 625.195312 523.109375 " fill-opacity="1" fill-rule="nonzero"/><path fill="#000000" d="M 434.984375 383.292969 C 431.300781 384.671875 428.484375 389.519531 425.628906 390.585938 C 423.488281 384.578125 421.609375 393.726562 420.253906 395.601562 C 419.800781 397.519531 417.867188 396.210938 417.097656 397.328125 C 416.808594 397.628906 415.964844 402.542969 415.070312 401.882812 C 409.644531 397.988281 416.238281 430.515625 404.085938 439.957031 C 414.9375 435.644531 425.167969 416.5625 431.53125 404.179688 C 431.527344 402.792969 428.9375 404.421875 429.867188 401.664062 C 431.035156 395.816406 434.996094 388.480469 434.984375 383.292969 Z M 434.984375 383.292969 " fill-opacity="1" fill-rule="nonzero"/><path fill="#000000" d="M 405.234375 422.773438 C 402.363281 423.148438 399.199219 428.246094 395.761719 429.640625 C 389.269531 433.8125 392.695312 442.375 388.78125 445.128906 C 384.398438 448.210938 379.496094 451.027344 377.53125 456.292969 C 377.386719 456.644531 377.824219 457.003906 378.136719 456.765625 C 383.738281 453.011719 389.039062 448.863281 394.027344 444.320312 C 404.945312 442.625 408.609375 432.695312 405.234375 422.777344 Z M 405.234375 422.773438 " fill-opacity="1" fill-rule="nonzero"/><path fill="#000000" d="M 360.550781 501.964844 C 336.113281 415.363281 228.890625 460.773438 164.3125 455.65625 C 160.988281 455.683594 160.988281 455.800781 164.300781 456.007812 C 170.773438 456.410156 177.683594 456.535156 185.03125 456.382812 C 247.691406 456.890625 337.566406 431.414062 360.550781 501.964844 Z M 360.550781 501.964844 " fill-opacity="1" fill-rule="nonzero"/><path fill="#000000" d="M 393.296875 478.492188 C 449.253906 444.007812 511.324219 461.574219 575.035156 463.019531 C 578.410156 464.054688 587.796875 459.707031 579.523438 459.4375 C 519.828125 460.964844 425.492188 438.417969 393.296875 478.496094 Z M 393.296875 478.492188 " fill-opacity="1" fill-rule="nonzero"/><path fill="#000000" d="M 256.957031 457.066406 C 291.632812 456.320312 329.511719 461.898438 353.464844 492.101562 C 340.136719 458.25 290.339844 454.082031 256.957031 457.066406 Z M 256.957031 457.066406 " fill-opacity="1" fill-rule="nonzero"/><path fill="#000000" d="M 365.824219 513.296875 C 415.59375 451.253906 491.125 469.226562 564.902344 475.867188 C 571.980469 476.371094 583.515625 477.664062 595.140625 476.957031 C 588.800781 476.148438 581.871094 476.152344 575.898438 475.414062 C 508.582031 469.875 406.585938 443.019531 365.824219 513.300781 Z M 365.824219 513.296875 " fill-opacity="1" fill-rule="nonzero"/><path fill="#000000" d="M 429.449219 479.707031 C 464.890625 472.3125 499.882812 476.0625 536 475.660156 C 475.207031 470.148438 407.050781 463.125 363.984375 517.125 C 381.632812 498.234375 403.648438 485.210938 429.449219 479.707031 Z M 429.449219 479.707031 " fill-opacity="1" fill-rule="nonzero"/><g transform="matrix(1, 0, 0, 1, 166, 591)"><g clip-path="url(#55820e7d64)"><g fill="#000000" fill-opacity="1"><g transform="translate(6.983373, 29.236733)"><g><path d="M 3.84375 3.421875 C 3 2.753906 2.515625 1.910156 2.390625 0.890625 C 2.265625 -0.128906 2.539062 -1.070312 3.21875 -1.9375 C 3.914062 -2.820312 4.757812 -3.3125 5.75 -3.40625 C 6.75 -3.5 7.671875 -3.210938 8.515625 -2.546875 C 9.347656 -1.890625 9.835938 -1.066406 9.984375 -0.078125 C 10.140625 0.910156 9.867188 1.847656 9.171875 2.734375 C 8.492188 3.597656 7.644531 4.09375 6.625 4.21875 C 5.601562 4.34375 4.675781 4.078125 3.84375 3.421875 Z M 3.84375 3.421875 "/></g></g></g><g fill="#000000" fill-opacity="1"><g transform="translate(19.18822, 38.675423)"><g/></g></g><g fill="#000000" fill-opacity="1"><g transform="translate(32.553533, 47.916234)"><g><path d="M 4.171875 3 C 3.253906 2.425781 2.679688 1.632812 2.453125 0.625 C 2.234375 -0.382812 2.414062 -1.347656 3 -2.265625 C 3.59375 -3.222656 4.378906 -3.796875 5.359375 -3.984375 C 6.347656 -4.179688 7.300781 -3.992188 8.21875 -3.421875 C 9.113281 -2.859375 9.679688 -2.085938 9.921875 -1.109375 C 10.171875 -0.140625 10 0.820312 9.40625 1.78125 C 8.820312 2.695312 8.023438 3.269531 7.015625 3.5 C 6.015625 3.726562 5.066406 3.5625 4.171875 3 Z M 4.171875 3 "/></g></g></g><g fill="#000000" fill-opacity="1"><g transform="translate(45.679279, 56.025581)"><g/></g></g><g fill="#000000" fill-opacity="1"><g transform="translate(59.938406, 63.81674)"><g><path d="M 4.453125 2.546875 C 3.492188 2.066406 2.847656 1.335938 2.515625 0.359375 C 2.179688 -0.617188 2.253906 -1.597656 2.734375 -2.578125 C 3.234375 -3.585938 3.960938 -4.238281 4.921875 -4.53125 C 5.878906 -4.820312 6.835938 -4.726562 7.796875 -4.25 C 8.753906 -3.78125 9.410156 -3.078125 9.765625 -2.140625 C 10.117188 -1.210938 10.046875 -0.242188 9.546875 0.765625 C 9.066406 1.742188 8.335938 2.398438 7.359375 2.734375 C 6.378906 3.078125 5.410156 3.015625 4.453125 2.546875 Z M 4.453125 2.546875 "/></g></g></g><g fill="#000000" fill-opacity="1"><g transform="translate(73.84086, 70.507713)"><g/></g></g><g fill="#000000" fill-opacity="1"><g transform="translate(89.081052, 77.115188)"><g><path d="M 24.78125 2.96875 L 23.15625 7.78125 L 3.078125 1.03125 L 11.796875 -24.90625 L 31.390625 -18.3125 L 29.765625 -13.5 L 16.125 -18.09375 L 14.234375 -12.453125 L 26.28125 -8.40625 L 24.71875 -3.734375 L 12.671875 -7.78125 L 10.65625 -1.78125 Z M 24.78125 2.96875 "/></g></g></g><g fill="#000000" fill-opacity="1"><g transform="translate(119.58333, 87.010353)"><g><path d="M 11.828125 3.125 C 9.710938 2.65625 7.734375 1.910156 5.890625 0.890625 C 4.054688 -0.117188 2.644531 -1.21875 1.65625 -2.40625 L 4.796875 -6.578125 C 5.742188 -5.472656 6.945312 -4.488281 8.40625 -3.625 C 9.875 -2.769531 11.394531 -2.171875 12.96875 -1.828125 C 14.726562 -1.429688 16.085938 -1.398438 17.046875 -1.734375 C 18.003906 -2.066406 18.582031 -2.664062 18.78125 -3.53125 C 18.914062 -4.164062 18.78125 -4.75 18.375 -5.28125 C 17.96875 -5.8125 17.40625 -6.289062 16.6875 -6.71875 C 15.976562 -7.144531 15 -7.660156 13.75 -8.265625 C 11.820312 -9.191406 10.265625 -10.039062 9.078125 -10.8125 C 7.890625 -11.582031 6.945312 -12.601562 6.25 -13.875 C 5.5625 -15.15625 5.414062 -16.6875 5.8125 -18.46875 C 6.15625 -20.019531 6.882812 -21.332031 8 -22.40625 C 9.125 -23.476562 10.613281 -24.191406 12.46875 -24.546875 C 14.332031 -24.910156 16.488281 -24.820312 18.9375 -24.28125 C 20.632812 -23.894531 22.253906 -23.316406 23.796875 -22.546875 C 25.335938 -21.773438 26.628906 -20.875 27.671875 -19.84375 L 24.71875 -15.5625 C 22.5625 -17.519531 20.25 -18.773438 17.78125 -19.328125 C 16.050781 -19.722656 14.710938 -19.726562 13.765625 -19.34375 C 12.816406 -18.96875 12.238281 -18.328125 12.03125 -17.421875 C 11.832031 -16.492188 12.15625 -15.703125 13 -15.046875 C 13.84375 -14.390625 15.203125 -13.625 17.078125 -12.75 C 19.003906 -11.8125 20.5625 -10.957031 21.75 -10.1875 C 22.9375 -9.414062 23.875 -8.40625 24.5625 -7.15625 C 25.257812 -5.90625 25.410156 -4.394531 25.015625 -2.625 C 24.671875 -1.09375 23.929688 0.207031 22.796875 1.28125 C 21.660156 2.351562 20.15625 3.0625 18.28125 3.40625 C 16.414062 3.757812 14.265625 3.664062 11.828125 3.125 Z M 11.828125 3.125 "/></g></g></g><g fill="#000000" fill-opacity="1"><g transform="translate(149.639242, 93.42088)"><g><path d="M 11.5 -20.984375 L 2.8125 -22.03125 L 3.421875 -27.140625 L 27.09375 -24.28125 L 26.484375 -19.171875 L 17.78125 -20.21875 L 15.125 1.828125 L 8.84375 1.0625 Z M 11.5 -20.984375 "/></g></g></g><g fill="#000000" fill-opacity="1"><g transform="translate(179.113789, 96.50691)"><g/></g></g><g fill="#000000" fill-opacity="1"><g transform="translate(195.634694, 97.243704)"><g><path d="M 21.796875 -5.84375 L 21.953125 -0.6875 L 1.296875 -0.046875 L 1.171875 -4.15625 L 11.40625 -14.4375 C 12.488281 -15.539062 13.210938 -16.476562 13.578125 -17.25 C 13.941406 -18.019531 14.113281 -18.785156 14.09375 -19.546875 C 14.0625 -20.640625 13.664062 -21.46875 12.90625 -22.03125 C 12.144531 -22.601562 11.046875 -22.867188 9.609375 -22.828125 C 8.410156 -22.785156 7.335938 -22.519531 6.390625 -22.03125 C 5.441406 -21.539062 4.660156 -20.832031 4.046875 -19.90625 L -0.65625 -22.734375 C 0.351562 -24.347656 1.78125 -25.632812 3.625 -26.59375 C 5.476562 -27.550781 7.617188 -28.070312 10.046875 -28.15625 C 12.078125 -28.21875 13.859375 -27.9375 15.390625 -27.3125 C 16.921875 -26.695312 18.128906 -25.796875 19.015625 -24.609375 C 19.910156 -23.429688 20.382812 -22.019531 20.4375 -20.375 C 20.476562 -18.882812 20.207031 -17.476562 19.625 -16.15625 C 19.039062 -14.84375 17.875 -13.328125 16.125 -11.609375 L 10.046875 -5.46875 Z M 21.796875 -5.84375 "/></g></g></g><g fill="#000000" fill-opacity="1"><g transform="translate(224.486005, 96.137036)"><g><path d="M 13.203125 -1.28125 C 10.941406 -0.976562 8.859375 -1.265625 6.953125 -2.140625 C 5.054688 -3.015625 3.472656 -4.441406 2.203125 -6.421875 C 0.929688 -8.398438 0.0976562 -10.84375 -0.296875 -13.75 C -0.679688 -16.675781 -0.519531 -19.253906 0.1875 -21.484375 C 0.894531 -23.722656 2.050781 -25.515625 3.65625 -26.859375 C 5.269531 -28.203125 7.207031 -29.023438 9.46875 -29.328125 C 11.707031 -29.628906 13.78125 -29.34375 15.6875 -28.46875 C 17.59375 -27.59375 19.179688 -26.164062 20.453125 -24.1875 C 21.722656 -22.21875 22.550781 -19.769531 22.9375 -16.84375 C 23.332031 -13.9375 23.175781 -11.363281 22.46875 -9.125 C 21.757812 -6.882812 20.597656 -5.09375 18.984375 -3.75 C 17.367188 -2.40625 15.441406 -1.582031 13.203125 -1.28125 Z M 12.5 -6.59375 C 14.144531 -6.8125 15.34375 -7.691406 16.09375 -9.234375 C 16.84375 -10.785156 17.019531 -13.039062 16.625 -16 C 16.226562 -18.976562 15.460938 -21.113281 14.328125 -22.40625 C 13.203125 -23.695312 11.816406 -24.234375 10.171875 -24.015625 C 8.535156 -23.796875 7.34375 -22.914062 6.59375 -21.375 C 5.84375 -19.832031 5.664062 -17.570312 6.0625 -14.59375 C 6.457031 -11.632812 7.21875 -9.503906 8.34375 -8.203125 C 9.476562 -6.910156 10.863281 -6.375 12.5 -6.59375 Z M 12.5 -6.59375 "/></g></g></g><g fill="#000000" fill-opacity="1"><g transform="translate(256.492465, 91.487744)"><g><path d="M 20.1875 -10.109375 L 21.375 -5.09375 L 1.265625 -0.296875 L 0.3125 -4.296875 L 8.265625 -16.4375 C 9.097656 -17.726562 9.613281 -18.789062 9.8125 -19.625 C 10.019531 -20.46875 10.035156 -21.257812 9.859375 -22 C 9.597656 -23.0625 9.039062 -23.789062 8.1875 -24.1875 C 7.332031 -24.59375 6.207031 -24.628906 4.8125 -24.296875 C 3.644531 -24.015625 2.644531 -23.535156 1.8125 -22.859375 C 0.988281 -22.191406 0.367188 -21.347656 -0.046875 -20.328125 L -5.21875 -22.140625 C -4.550781 -23.921875 -3.410156 -25.46875 -1.796875 -26.78125 C -0.179688 -28.101562 1.804688 -29.046875 4.171875 -29.609375 C 6.148438 -30.078125 7.953125 -30.160156 9.578125 -29.859375 C 11.210938 -29.554688 12.582031 -28.914062 13.6875 -27.9375 C 14.789062 -26.957031 15.53125 -25.671875 15.90625 -24.078125 C 16.257812 -22.628906 16.285156 -21.195312 15.984375 -19.78125 C 15.679688 -18.363281 14.84375 -16.640625 13.46875 -14.609375 L 8.734375 -7.375 Z M 20.1875 -10.109375 "/></g></g></g><g fill="#000000" fill-opacity="1"><g transform="translate(284.440938, 84.555226)"><g><path d="M 4.796875 -19.6875 C 8.453125 -20.925781 11.394531 -21.117188 13.625 -20.265625 C 15.863281 -19.410156 17.398438 -17.757812 18.234375 -15.3125 C 18.773438 -13.738281 18.867188 -12.171875 18.515625 -10.609375 C 18.171875 -9.046875 17.320312 -7.597656 15.96875 -6.265625 C 14.625 -4.941406 12.769531 -3.875 10.40625 -3.0625 C 8.582031 -2.4375 6.703125 -2.0625 4.765625 -1.9375 C 2.835938 -1.820312 1.109375 -2 -0.421875 -2.46875 L 0.375 -7.859375 C 1.613281 -7.453125 2.941406 -7.257812 4.359375 -7.28125 C 5.785156 -7.3125 7.175781 -7.5625 8.53125 -8.03125 C 10.03125 -8.539062 11.109375 -9.238281 11.765625 -10.125 C 12.429688 -11.019531 12.582031 -12 12.21875 -13.0625 C 11.84375 -14.164062 11.109375 -14.847656 10.015625 -15.109375 C 8.921875 -15.367188 7.269531 -15.117188 5.0625 -14.359375 L -1.5625 -12.09375 L -5.21875 -27.125 L 10.5625 -32.53125 L 12.203125 -27.71875 L 1.421875 -24.03125 L 2.6875 -18.953125 Z M 4.796875 -19.6875 "/></g></g></g><g fill="#000000" fill-opacity="1"><g transform="translate(311.472312, 74.858885)"><g/></g></g><g fill="#000000" fill-opacity="1"><g transform="translate(326.353196, 68.333204)"><g><path d="M 4.734375 -1.984375 C 3.773438 -1.503906 2.804688 -1.429688 1.828125 -1.765625 C 0.847656 -2.097656 0.117188 -2.753906 -0.359375 -3.734375 C -0.859375 -4.742188 -0.929688 -5.71875 -0.578125 -6.65625 C -0.222656 -7.59375 0.429688 -8.300781 1.390625 -8.78125 C 2.347656 -9.25 3.304688 -9.332031 4.265625 -9.03125 C 5.222656 -8.738281 5.953125 -8.085938 6.453125 -7.078125 C 6.929688 -6.097656 7.003906 -5.117188 6.671875 -4.140625 C 6.335938 -3.171875 5.691406 -2.453125 4.734375 -1.984375 Z M 4.734375 -1.984375 "/></g></g></g><g fill="#000000" fill-opacity="1"><g transform="translate(340.145197, 61.417437)"><g/></g></g><g fill="#000000" fill-opacity="1"><g transform="translate(354.261281, 53.370023)"><g><path d="M 4.515625 -2.46875 C 3.597656 -1.894531 2.632812 -1.722656 1.625 -1.953125 C 0.625 -2.179688 -0.164062 -2.753906 -0.75 -3.671875 C -1.34375 -4.628906 -1.515625 -5.59375 -1.265625 -6.5625 C -1.023438 -7.539062 -0.445312 -8.316406 0.46875 -8.890625 C 1.363281 -9.453125 2.300781 -9.632812 3.28125 -9.4375 C 4.269531 -9.25 5.0625 -8.675781 5.65625 -7.71875 C 6.238281 -6.800781 6.414062 -5.835938 6.1875 -4.828125 C 5.96875 -3.816406 5.410156 -3.03125 4.515625 -2.46875 Z M 4.515625 -2.46875 "/></g></g></g><g fill="#000000" fill-opacity="1"><g transform="translate(367.253643, 45.048665)"><g/></g></g><g fill="#000000" fill-opacity="1"><g transform="translate(380.449869, 35.568022)"><g><path d="M 4.21875 -2.921875 C 3.375 -2.253906 2.441406 -1.984375 1.421875 -2.109375 C 0.398438 -2.234375 -0.445312 -2.726562 -1.125 -3.59375 C -1.820312 -4.476562 -2.09375 -5.414062 -1.9375 -6.40625 C -1.789062 -7.394531 -1.296875 -8.222656 -0.453125 -8.890625 C 0.378906 -9.546875 1.289062 -9.828125 2.28125 -9.734375 C 3.28125 -9.640625 4.128906 -9.148438 4.828125 -8.265625 C 5.503906 -7.398438 5.78125 -6.457031 5.65625 -5.4375 C 5.53125 -4.414062 5.050781 -3.578125 4.21875 -2.921875 Z M 4.21875 -2.921875 "/></g></g></g></g></g></g></g></svg>